REM DIRINDEX 1\2\4\18,1\2\4\19,1\2\5\20,1\2\5\21,1\2\6\22,1\2\7\23,1\2\8\24,1\2\8\25,1\2\9\26,1\2\10\27,1\3\11\28,1\3\11\29,1\3\11\30,1\3\11\31,1\3\12\32,1\3\12\33,1\3\12\34,1\3\12\35,1\3\13\36,1\3\13\37,1\3\14\38,1\3\14\39,1\3\15\40,1\3\15\41,1\3\15\42,1\3\16\43,1\3\16\44,1\3\17\45,1\3\17\46
REM DIRNAME folder01,folder02,folder03,folder04,folder05,folder06,folder07,folder08,folder09,folder10,folder11,folder12,folder13,folder14,folder15,folder16,folder17,folder18,folder19,folder20,folder21,folder22,folder23,folder24,folder25,folder26,folder27,folder28,folder29,folder30,folder31,folder32,folder33,folder34,folder35,folder36,folder37,folder38,folder39,folder40,folder41,folder42,folder43,folder44,folder45,folder46
TITLE ""
FILE "08.mp3" MP3
  TRACK 01 AUDIO
    TITLE "0:"
    INDEX 01 00:00:00
  TRACK 02 AUDIO
    TITLE "28:cjc023_5260"
    INDEX 01 00:00:13
  TRACK 03 AUDIO
    TITLE "0:"
    INDEX 01 00:01:42
  TRACK 04 AUDIO
    TITLE "29:cjc023_5261"
    INDEX 01 00:02:16
  TRACK 05 AUDIO
    TITLE "0:"
    INDEX 01 00:04:42
  TRACK 06 AUDIO
    TITLE "30:cjc023_5262"
    INDEX 01 00:04:66
  TRACK 07 AUDIO
    TITLE "0:"
    INDEX 01 00:06:51
  TRACK 08 AUDIO
    TITLE "31:cjc023_5263"
    INDEX 01 00:07:00
  TRACK 09 AUDIO
    TITLE "0:"
    INDEX 01 00:08:62
  TRACK 10 AUDIO
    TITLE "28:cjc023_5264"
    INDEX 01 00:09:61
  TRACK 11 AUDIO
    TITLE "0:"
    INDEX 01 00:11:05
  TRACK 12 AUDIO
    TITLE "29:cjc023_5265"
    INDEX 01 00:11:52
  TRACK 13 AUDIO
    TITLE "0:"
    INDEX 01 00:13:59
  TRACK 14 AUDIO
    TITLE "30:cjc023_5266"
    INDEX 01 00:14:07
  TRACK 15 AUDIO
    TITLE "0:"
    INDEX 01 00:16:08
  TRACK 16 AUDIO
    TITLE "31:cjc023_5267"
    INDEX 01 00:16:32
  TRACK 17 AUDIO
    TITLE "0:"
    INDEX 01 00:18:33
  TRACK 18 AUDIO
    TITLE "28:cjc023_5268"
    INDEX 01 00:19:32
  TRACK 19 AUDIO
    TITLE "0:"
    INDEX 01 00:20:51
  TRACK 20 AUDIO
    TITLE "29:cjc023_5269"
    INDEX 01 00:21:23
  TRACK 21 AUDIO
    TITLE "0:"
    INDEX 01 00:23:14
  TRACK 22 AUDIO
    TITLE "30:cjc023_5270"
    INDEX 01 00:23:38
  TRACK 23 AUDIO
    TITLE "0:"
    INDEX 01 00:25:29
  TRACK 24 AUDIO
    TITLE "31:cjc023_5271"
    INDEX 01 00:25:52
  TRACK 25 AUDIO
    TITLE "0:"
    INDEX 01 00:27:45
  TRACK 26 AUDIO
    TITLE "28:cjc023_5272"
    INDEX 01 00:28:43
  TRACK 27 AUDIO
    TITLE "0:"
    INDEX 01 00:29:66
  TRACK 28 AUDIO
    TITLE "29:cjc023_5273"
    INDEX 01 00:30:38
  TRACK 29 AUDIO
    TITLE "0:"
    INDEX 01 00:35:00
  TRACK 30 AUDIO
    TITLE "30:cjc023_5274"
    INDEX 01 00:35:25
  TRACK 31 AUDIO
    TITLE "0:"
    INDEX 01 00:38:63
  TRACK 32 AUDIO
    TITLE "31:cjc023_5275"
    INDEX 01 00:39:11
  TRACK 33 AUDIO
    TITLE "0:"
    INDEX 01 00:42:47
  TRACK 34 AUDIO
    TITLE "28:cjc023_5276"
    INDEX 01 00:43:44
  TRACK 35 AUDIO
    TITLE "0:"
    INDEX 01 00:44:42
  TRACK 36 AUDIO
    TITLE "29:cjc023_5277"
    INDEX 01 00:45:20
  TRACK 37 AUDIO
    TITLE "0:"
    INDEX 01 00:48:02
  TRACK 38 AUDIO
    TITLE "30:cjc023_5278"
    INDEX 01 00:48:22
  TRACK 39 AUDIO
    TITLE "0:"
    INDEX 01 00:50:60
  TRACK 40 AUDIO
    TITLE "31:cjc023_5279"
    INDEX 01 00:51:09
  TRACK 41 AUDIO
    TITLE "0:"
    INDEX 01 00:53:45
  TRACK 42 AUDIO
    TITLE "28:cjc023_5280"
    INDEX 01 00:54:44
  TRACK 43 AUDIO
    TITLE "0:"
    INDEX 01 00:55:55
  TRACK 44 AUDIO
    TITLE "29:cjc023_5281"
    INDEX 01 00:56:25
  TRACK 45 AUDIO
    TITLE "0:"
    INDEX 01 00:58:30
  TRACK 46 AUDIO
    TITLE "30:cjc023_5282"
    INDEX 01 00:58:58
  TRACK 47 AUDIO
    TITLE "0:"
    INDEX 01 01:00:57
  TRACK 48 AUDIO
    TITLE "31:cjc023_5283"
    INDEX 01 01:01:03
  TRACK 49 AUDIO
    TITLE "0:"
    INDEX 01 01:03:00
  TRACK 50 AUDIO
    TITLE "28:cjc023_5284"
    INDEX 01 01:03:73
  TRACK 51 AUDIO
    TITLE "0:"
    INDEX 01 01:05:11
  TRACK 52 AUDIO
    TITLE "29:cjc023_5285"
    INDEX 01 01:05:62
  TRACK 53 AUDIO
    TITLE "0:"
    INDEX 01 01:08:74
  TRACK 54 AUDIO
    TITLE "30:cjc023_5286"
    INDEX 01 01:09:22
  TRACK 55 AUDIO
    TITLE "0:"
    INDEX 01 01:11:41
  TRACK 56 AUDIO
    TITLE "31:cjc023_5287"
    INDEX 01 01:11:64
  TRACK 57 AUDIO
    TITLE "0:"
    INDEX 01 01:14:08
  TRACK 58 AUDIO
    TITLE "28:cjc023_5288"
    INDEX 01 01:15:07
  TRACK 59 AUDIO
    TITLE "0:"
    INDEX 01 01:16:24
  TRACK 60 AUDIO
    TITLE "29:cjc023_5289"
    INDEX 01 01:17:00
  TRACK 61 AUDIO
    TITLE "0:"
    INDEX 01 01:19:15
  TRACK 62 AUDIO
    TITLE "30:cjc023_5290"
    INDEX 01 01:19:38
  TRACK 63 AUDIO
    TITLE "0:"
    INDEX 01 01:21:47
  TRACK 64 AUDIO
    TITLE "31:cjc023_5291"
    INDEX 01 01:21:70
  TRACK 65 AUDIO
    TITLE "0:"
    INDEX 01 01:24:06
  TRACK 66 AUDIO
    TITLE "28:cjc023_5292"
    INDEX 01 01:25:04
  TRACK 67 AUDIO
    TITLE "0:"
    INDEX 01 01:26:36
  TRACK 68 AUDIO
    TITLE "29:cjc023_5293"
    INDEX 01 01:27:16
  TRACK 69 AUDIO
    TITLE "0:"
    INDEX 01 01:28:74
  TRACK 70 AUDIO
    TITLE "30:cjc023_5294"
    INDEX 01 01:29:25
  TRACK 71 AUDIO
    TITLE "0:"
    INDEX 01 01:31:41
  TRACK 72 AUDIO
    TITLE "31:cjc023_5295"
    INDEX 01 01:31:63
  TRACK 73 AUDIO
    TITLE "0:"
    INDEX 01 01:34:05
  TRACK 74 AUDIO
    TITLE "28:cjc023_5296"
    INDEX 01 01:35:00
  TRACK 75 AUDIO
    TITLE "0:"
    INDEX 01 01:36:21
  TRACK 76 AUDIO
    TITLE "29:cjc023_5297"
    INDEX 01 01:36:70
  TRACK 77 AUDIO
    TITLE "0:"
    INDEX 01 01:39:45
  TRACK 78 AUDIO
    TITLE "30:cjc023_5298"
    INDEX 01 01:39:70
  TRACK 79 AUDIO
    TITLE "0:"
    INDEX 01 01:42:24
  TRACK 80 AUDIO
    TITLE "31:cjc023_5299"
    INDEX 01 01:42:47
  TRACK 81 AUDIO
    TITLE "0:"
    INDEX 01 01:45:02
  TRACK 82 AUDIO
    TITLE "28:cjc023_5300"
    INDEX 01 01:46:00
  TRACK 83 AUDIO
    TITLE "0:"
    INDEX 01 01:47:11
  TRACK 84 AUDIO
    TITLE "29:cjc023_5301"
    INDEX 01 01:47:56
  TRACK 85 AUDIO
    TITLE "0:"
    INDEX 01 01:49:35
  TRACK 86 AUDIO
    TITLE "30:cjc023_5302"
    INDEX 01 01:49:61
  TRACK 87 AUDIO
    TITLE "0:"
    INDEX 01 01:51:50
  TRACK 88 AUDIO
    TITLE "31:cjc023_5303"
    INDEX 01 01:51:74
  TRACK 89 AUDIO
    TITLE "0:"
    INDEX 01 01:53:63
  TRACK 90 AUDIO
    TITLE "28:cjc023_5304"
    INDEX 01 01:54:60
  TRACK 91 AUDIO
    TITLE "0:"
    INDEX 01 01:55:69
  TRACK 92 AUDIO
    TITLE "29:cjc023_5305"
    INDEX 01 01:56:41
  TRACK 93 AUDIO
    TITLE "0:"
    INDEX 01 02:00:51
  TRACK 94 AUDIO
    TITLE "30:cjc023_5306"
    INDEX 01 02:00:71
  TRACK 95 AUDIO
    TITLE "0:"
    INDEX 01 02:04:06
  TRACK 96 AUDIO
    TITLE "31:cjc023_5307"
    INDEX 01 02:04:25
  TRACK 97 AUDIO
    TITLE "0:"
    INDEX 01 02:07:33
  TRACK 98 AUDIO
    TITLE "28:cjc023_5308"
    INDEX 01 02:08:33
  TRACK 99 AUDIO
    TITLE "0:"
    INDEX 01 02:09:48
  TRACK 100 AUDIO
    TITLE "29:cjc023_5309"
    INDEX 01 02:10:20
  TRACK 101 AUDIO
    TITLE "0:"
    INDEX 01 02:12:33
  TRACK 102 AUDIO
    TITLE "30:cjc023_5310"
    INDEX 01 02:12:52
  TRACK 103 AUDIO
    TITLE "0:"
    INDEX 01 02:14:57
  TRACK 104 AUDIO
    TITLE "31:cjc023_5311"
    INDEX 01 02:15:03
  TRACK 105 AUDIO
    TITLE "0:"
    INDEX 01 02:17:06
  TRACK 106 AUDIO
    TITLE "28:cjc023_5312"
    INDEX 01 02:18:04
  TRACK 107 AUDIO
    TITLE "0:"
    INDEX 01 02:19:21
  TRACK 108 AUDIO
    TITLE "29:cjc023_5313"
    INDEX 01 02:19:70
  TRACK 109 AUDIO
    TITLE "0:"
    INDEX 01 02:23:44
  TRACK 110 AUDIO
    TITLE "30:cjc023_5314"
    INDEX 01 02:23:74
  TRACK 111 AUDIO
    TITLE "0:"
    INDEX 01 02:26:74
  TRACK 112 AUDIO
    TITLE "31:cjc023_5315"
    INDEX 01 02:27:22
  TRACK 113 AUDIO
    TITLE "0:"
    INDEX 01 02:30:27
  TRACK 114 AUDIO
    TITLE "28:cjc023_5316"
    INDEX 01 02:31:22
  TRACK 115 AUDIO
    TITLE "0:"
    INDEX 01 02:32:51
  TRACK 116 AUDIO
    TITLE "29:cjc023_5317"
    INDEX 01 02:33:27
  TRACK 117 AUDIO
    TITLE "0:"
    INDEX 01 02:35:14
  TRACK 118 AUDIO
    TITLE "30:cjc023_5318"
    INDEX 01 02:35:38
  TRACK 119 AUDIO
    TITLE "0:"
    INDEX 01 02:37:27
  TRACK 120 AUDIO
    TITLE "31:cjc023_5319"
    INDEX 01 02:37:48
  TRACK 121 AUDIO
    TITLE "0:"
    INDEX 01 02:39:35
  TRACK 122 AUDIO
    TITLE "28:cjc023_5320"
    INDEX 01 02:40:33
  TRACK 123 AUDIO
    TITLE "0:"
    INDEX 01 02:41:44
  TRACK 124 AUDIO
    TITLE "29:cjc023_5321"
    INDEX 01 02:42:18
  TRACK 125 AUDIO
    TITLE "0:"
    INDEX 01 02:44:42
  TRACK 126 AUDIO
    TITLE "30:cjc023_5322"
    INDEX 01 02:44:70
  TRACK 127 AUDIO
    TITLE "0:"
    INDEX 01 02:47:27
  TRACK 128 AUDIO
    TITLE "31:cjc023_5323"
    INDEX 01 02:47:52
  TRACK 129 AUDIO
    TITLE "0:"
    INDEX 01 02:50:12
  TRACK 130 AUDIO
    TITLE "28:cjc023_5324"
    INDEX 01 02:51:07
  TRACK 131 AUDIO
    TITLE "0:"
    INDEX 01 02:52:44
  TRACK 132 AUDIO
    TITLE "29:cjc023_5325"
    INDEX 01 02:53:16
  TRACK 133 AUDIO
    TITLE "0:"
    INDEX 01 02:55:72
  TRACK 134 AUDIO
    TITLE "30:cjc023_5326"
    INDEX 01 02:56:18
  TRACK 135 AUDIO
    TITLE "0:"
    INDEX 01 02:58:72
  TRACK 136 AUDIO
    TITLE "31:cjc023_5327"
    INDEX 01 02:59:18
  TRACK 137 AUDIO
    TITLE "0:"
    INDEX 01 03:01:72
  TRACK 138 AUDIO
    TITLE "28:cjc023_5328"
    INDEX 01 03:02:68
  TRACK 139 AUDIO
    TITLE "0:"
    INDEX 01 03:04:20
  TRACK 140 AUDIO
    TITLE "29:cjc023_5329"
    INDEX 01 03:04:69
  TRACK 141 AUDIO
    TITLE "0:"
    INDEX 01 03:08:27
  TRACK 142 AUDIO
    TITLE "30:cjc023_5330"
    INDEX 01 03:08:53
  TRACK 143 AUDIO
    TITLE "0:"
    INDEX 01 03:12:33
  TRACK 144 AUDIO
    TITLE "31:cjc023_5331"
    INDEX 01 03:12:54
  TRACK 145 AUDIO
    TITLE "0:"
    INDEX 01 03:16:36
  TRACK 146 AUDIO
    TITLE "28:cjc023_5332"
    INDEX 01 03:17:32
  TRACK 147 AUDIO
    TITLE "0:"
    INDEX 01 03:18:30
  TRACK 148 AUDIO
    TITLE "29:cjc023_5333"
    INDEX 01 03:19:03
  TRACK 149 AUDIO
    TITLE "0:"
    INDEX 01 03:21:12
  TRACK 150 AUDIO
    TITLE "30:cjc023_5334"
    INDEX 01 03:21:42
  TRACK 151 AUDIO
    TITLE "0:"
    INDEX 01 03:23:56
  TRACK 152 AUDIO
    TITLE "31:cjc023_5335"
    INDEX 01 03:24:11
  TRACK 153 AUDIO
    TITLE "0:"
    INDEX 01 03:26:27
  TRACK 154 AUDIO
    TITLE "28:cjc023_5336"
    INDEX 01 03:27:28
  TRACK 155 AUDIO
    TITLE "0:"
    INDEX 01 03:28:38
  TRACK 156 AUDIO
    TITLE "29:cjc023_5337"
    INDEX 01 03:29:10
  TRACK 157 AUDIO
    TITLE "0:"
    INDEX 01 03:30:54
  TRACK 158 AUDIO
    TITLE "30:cjc023_5338"
    INDEX 01 03:31:01
  TRACK 159 AUDIO
    TITLE "0:"
    INDEX 01 03:32:57
  TRACK 160 AUDIO
    TITLE "31:cjc023_5339"
    INDEX 01 03:33:04
  TRACK 161 AUDIO
    TITLE "0:"
    INDEX 01 03:34:60
  TRACK 162 AUDIO
    TITLE "28:cjc023_5340"
    INDEX 01 03:35:55
  TRACK 163 AUDIO
    TITLE "0:"
    INDEX 01 03:37:09
  TRACK 164 AUDIO
    TITLE "29:cjc023_5341"
    INDEX 01 03:37:54
  TRACK 165 AUDIO
    TITLE "0:"
    INDEX 01 03:39:63
  TRACK 166 AUDIO
    TITLE "30:cjc023_5342"
    INDEX 01 03:40:12
  TRACK 167 AUDIO
    TITLE "0:"
    INDEX 01 03:42:05
  TRACK 168 AUDIO
    TITLE "31:cjc023_5343"
    INDEX 01 03:42:28
  TRACK 169 AUDIO
    TITLE "0:"
    INDEX 01 03:44:21
  TRACK 170 AUDIO
    TITLE "28:cjc023_5344"
    INDEX 01 03:45:21
  TRACK 171 AUDIO
    TITLE "0:"
    INDEX 01 03:46:42
  TRACK 172 AUDIO
    TITLE "29:cjc023_5345"
    INDEX 01 03:47:14
  TRACK 173 AUDIO
    TITLE "0:"
    INDEX 01 03:49:18
  TRACK 174 AUDIO
    TITLE "30:cjc023_5346"
    INDEX 01 03:49:40
  TRACK 175 AUDIO
    TITLE "0:"
    INDEX 01 03:51:51
  TRACK 176 AUDIO
    TITLE "31:cjc023_5347"
    INDEX 01 03:51:70
  TRACK 177 AUDIO
    TITLE "0:"
    INDEX 01 03:54:06
  TRACK 178 AUDIO
    TITLE "28:cjc023_5348"
    INDEX 01 03:55:01
  TRACK 179 AUDIO
    TITLE "0:"
    INDEX 01 03:56:24
  TRACK 180 AUDIO
    TITLE "29:cjc023_5349"
    INDEX 01 03:56:71
  TRACK 181 AUDIO
    TITLE "0:"
    INDEX 01 03:58:27
  TRACK 182 AUDIO
    TITLE "30:cjc023_5350"
    INDEX 01 03:58:51
  TRACK 183 AUDIO
    TITLE "0:"
    INDEX 01 04:00:30
  TRACK 184 AUDIO
    TITLE "31:cjc023_5351"
    INDEX 01 04:00:51
  TRACK 185 AUDIO
    TITLE "0:"
    INDEX 01 04:02:29
  TRACK 186 AUDIO
    TITLE "28:cjc023_5352"
    INDEX 01 04:03:28
  TRACK 187 AUDIO
    TITLE "0:"
    INDEX 01 04:04:51
  TRACK 188 AUDIO
    TITLE "29:cjc023_5353"
    INDEX 01 04:05:21
  TRACK 189 AUDIO
    TITLE "0:"
    INDEX 01 04:09:15
  TRACK 190 AUDIO
    TITLE "30:cjc023_5354"
    INDEX 01 04:09:35
  TRACK 191 AUDIO
    TITLE "0:"
    INDEX 01 04:12:33
  TRACK 192 AUDIO
    TITLE "31:cjc023_5355"
    INDEX 01 04:12:55
  TRACK 193 AUDIO
    TITLE "0:"
    INDEX 01 04:15:51
  TRACK 194 AUDIO
    TITLE "28:cjc023_5356"
    INDEX 01 04:16:52
  TRACK 195 AUDIO
    TITLE "0:"
    INDEX 01 04:17:68
  TRACK 196 AUDIO
    TITLE "29:cjc023_5357"
    INDEX 01 04:18:42
  TRACK 197 AUDIO
    TITLE "0:"
    INDEX 01 04:19:72
  TRACK 198 AUDIO
    TITLE "30:cjc023_5358"
    INDEX 01 04:20:23
  TRACK 199 AUDIO
    TITLE "0:"
    INDEX 01 04:21:69
  TRACK 200 AUDIO
    TITLE "31:cjc023_5359"
    INDEX 01 04:22:20
  TRACK 201 AUDIO
    TITLE "0:"
    INDEX 01 04:23:66
  TRACK 202 AUDIO
    TITLE "28:cjc023_5360"
    INDEX 01 04:24:66
  TRACK 203 AUDIO
    TITLE "0:"
    INDEX 01 04:26:39
  TRACK 204 AUDIO
    TITLE "29:cjc023_5361"
    INDEX 01 04:27:15
  TRACK 205 AUDIO
    TITLE "0:"
    INDEX 01 04:30:00
  TRACK 206 AUDIO
    TITLE "30:cjc023_5362"
    INDEX 01 04:30:17
  TRACK 207 AUDIO
    TITLE "0:"
    INDEX 01 04:33:18
  TRACK 208 AUDIO
    TITLE "31:cjc023_5363"
    INDEX 01 04:33:37
  TRACK 209 AUDIO
    TITLE "0:"
    INDEX 01 04:36:37
  TRACK 210 AUDIO
    TITLE "28:cjc023_5364"
    INDEX 01 04:37:35
  TRACK 211 AUDIO
    TITLE "0:"
    INDEX 01 04:38:50
  TRACK 212 AUDIO
    TITLE "29:cjc023_5365"
    INDEX 01 04:39:22
  TRACK 213 AUDIO
    TITLE "0:"
    INDEX 01 04:41:68
  TRACK 214 AUDIO
    TITLE "30:cjc023_5366"
    INDEX 01 04:42:18
  TRACK 215 AUDIO
    TITLE "0:"
    INDEX 01 04:44:06
  TRACK 216 AUDIO
    TITLE "31:cjc023_5367"
    INDEX 01 04:44:27
  TRACK 217 AUDIO
    TITLE "0:"
    INDEX 01 04:46:14
  TRACK 218 AUDIO
    TITLE "28:cjc023_5368"
    INDEX 01 04:47:12
  TRACK 219 AUDIO
    TITLE "0:"
    INDEX 01 04:48:15
  TRACK 220 AUDIO
    TITLE "29:cjc023_5369"
    INDEX 01 04:48:64
  TRACK 221 AUDIO
    TITLE "0:"
    INDEX 01 04:50:51
  TRACK 222 AUDIO
    TITLE "30:cjc023_5370"
    INDEX 01 04:50:71
  TRACK 223 AUDIO
    TITLE "0:"
    INDEX 01 04:53:09
  TRACK 224 AUDIO
    TITLE "31:cjc023_5371"
    INDEX 01 04:53:28
  TRACK 225 AUDIO
    TITLE "0:"
    INDEX 01 04:55:39
  TRACK 226 AUDIO
    TITLE "28:cjc023_5372"
    INDEX 01 04:56:38
  TRACK 227 AUDIO
    TITLE "0:"
    INDEX 01 04:57:57
  TRACK 228 AUDIO
    TITLE "29:cjc023_5373"
    INDEX 01 04:58:27
  TRACK 229 AUDIO
    TITLE "0:"
    INDEX 01 05:00:30
  TRACK 230 AUDIO
    TITLE "30:cjc023_5374"
    INDEX 01 05:00:54
  TRACK 231 AUDIO
    TITLE "0:"
    INDEX 01 05:02:41
  TRACK 232 AUDIO
    TITLE "31:cjc023_5375"
    INDEX 01 05:02:66
  TRACK 233 AUDIO
    TITLE "0:"
    INDEX 01 05:04:55
  TRACK 234 AUDIO
    TITLE "28:cjc023_5376"
    INDEX 01 05:05:53
  TRACK 235 AUDIO
    TITLE "0:"
    INDEX 01 05:07:03
  TRACK 236 AUDIO
    TITLE "29:cjc023_5377"
    INDEX 01 05:07:52
  TRACK 237 AUDIO
    TITLE "0:"
    INDEX 01 05:10:48
  TRACK 238 AUDIO
    TITLE "30:cjc023_5378"
    INDEX 01 05:10:70
  TRACK 239 AUDIO
    TITLE "0:"
    INDEX 01 05:13:66
  TRACK 240 AUDIO
    TITLE "31:cjc023_5379"
    INDEX 01 05:14:13
  TRACK 241 AUDIO
    TITLE "0:"
    INDEX 01 05:17:05
  TRACK 242 AUDIO
    TITLE "28:cjc023_5380"
    INDEX 01 05:18:03
  TRACK 243 AUDIO
    TITLE "0:"
    INDEX 01 05:19:35
  TRACK 244 AUDIO
    TITLE "29:cjc023_5381"
    INDEX 01 05:20:15
  TRACK 245 AUDIO
    TITLE "0:"
    INDEX 01 05:22:08
  TRACK 246 AUDIO
    TITLE "30:cjc023_5382"
    INDEX 01 05:22:30
  TRACK 247 AUDIO
    TITLE "0:"
    INDEX 01 05:24:15
  TRACK 248 AUDIO
    TITLE "31:cjc023_5383"
    INDEX 01 05:24:38
  TRACK 249 AUDIO
    TITLE "0:"
    INDEX 01 05:26:22
  TRACK 250 AUDIO
    TITLE "28:cjc023_5384"
    INDEX 01 05:27:21
  TRACK 251 AUDIO
    TITLE "0:"
    INDEX 01 05:28:44
  TRACK 252 AUDIO
    TITLE "29:cjc023_5385"
    INDEX 01 05:29:18
  TRACK 253 AUDIO
    TITLE "0:"
    INDEX 01 05:32:24
  TRACK 254 AUDIO
    TITLE "30:cjc023_5386"
    INDEX 01 05:32:46
  TRACK 255 AUDIO
    TITLE "0:"
    INDEX 01 05:34:62
  TRACK 256 AUDIO
    TITLE "31:cjc023_5387"
    INDEX 01 05:35:09
  TRACK 257 AUDIO
    TITLE "0:"
    INDEX 01 05:37:23
  TRACK 258 AUDIO
    TITLE "28:cjc023_5388"
    INDEX 01 05:38:21
  TRACK 259 AUDIO
    TITLE "0:"
    INDEX 01 05:39:20
  TRACK 260 AUDIO
    TITLE "29:cjc023_5389"
    INDEX 01 05:39:67
  TRACK 261 AUDIO
    TITLE "0:"
    INDEX 01 05:41:33
  TRACK 262 AUDIO
    TITLE "30:cjc023_5390"
    INDEX 01 05:41:57
  TRACK 263 AUDIO
    TITLE "0:"
    INDEX 01 05:43:48
  TRACK 264 AUDIO
    TITLE "31:cjc023_5391"
    INDEX 01 05:43:67
  TRACK 265 AUDIO
    TITLE "0:"
    INDEX 01 05:45:54
  TRACK 266 AUDIO
    TITLE "28:cjc023_5392"
    INDEX 01 05:46:54
  TRACK 267 AUDIO
    TITLE "0:"
    INDEX 01 05:48:00
  TRACK 268 AUDIO
    TITLE "29:cjc023_5393"
    INDEX 01 05:48:49
  TRACK 269 AUDIO
    TITLE "0:"
    INDEX 01 05:51:35
  TRACK 270 AUDIO
    TITLE "30:cjc023_5394"
    INDEX 01 05:51:61
  TRACK 271 AUDIO
    TITLE "0:"
    INDEX 01 05:54:06
  TRACK 272 AUDIO
    TITLE "31:cjc023_5395"
    INDEX 01 05:54:28
  TRACK 273 AUDIO
    TITLE "0:"
    INDEX 01 05:56:48
  TRACK 274 AUDIO
    TITLE "28:cjc023_5396"
    INDEX 01 05:57:54
  TRACK 275 AUDIO
    TITLE "0:"
    INDEX 01 05:58:71
  TRACK 276 AUDIO
    TITLE "29:cjc023_5397"
    INDEX 01 05:59:43
  TRACK 277 AUDIO
    TITLE "0:"
    INDEX 01 06:02:23
  TRACK 278 AUDIO
    TITLE "30:cjc023_5398"
    INDEX 01 06:02:45
  TRACK 279 AUDIO
    TITLE "0:"
    INDEX 01 06:05:06
  TRACK 280 AUDIO
    TITLE "31:cjc023_5399"
    INDEX 01 06:05:28
  TRACK 281 AUDIO
    TITLE "0:"
    INDEX 01 06:07:60
  TRACK 282 AUDIO
    TITLE "28:cjc023_5400"
    INDEX 01 06:08:59
  TRACK 283 AUDIO
    TITLE "0:"
    INDEX 01 06:09:74
  TRACK 284 AUDIO
    TITLE "29:cjc023_5401"
    INDEX 01 06:10:46
  TRACK 285 AUDIO
    TITLE "0:"
    INDEX 01 06:14:09
  TRACK 286 AUDIO
    TITLE "30:cjc023_5402"
    INDEX 01 06:14:30
  TRACK 287 AUDIO
    TITLE "0:"
    INDEX 01 06:17:54
  TRACK 288 AUDIO
    TITLE "31:cjc023_5403"
    INDEX 01 06:18:01
  TRACK 289 AUDIO
    TITLE "0:"
    INDEX 01 06:21:25
  TRACK 290 AUDIO
    TITLE "28:cjc023_5404"
    INDEX 01 06:22:20
  TRACK 291 AUDIO
    TITLE "0:"
    INDEX 01 06:23:27
  TRACK 292 AUDIO
    TITLE "29:cjc023_5405"
    INDEX 01 06:23:73
  TRACK 293 AUDIO
    TITLE "0:"
    INDEX 01 06:25:48
  TRACK 294 AUDIO
    TITLE "30:cjc023_5406"
    INDEX 01 06:25:73
  TRACK 295 AUDIO
    TITLE "0:"
    INDEX 01 06:27:39
  TRACK 296 AUDIO
    TITLE "31:cjc023_5407"
    INDEX 01 06:27:70
  TRACK 297 AUDIO
    TITLE "0:"
    INDEX 01 06:29:38
  TRACK 298 AUDIO
    TITLE "28:cjc023_5408"
    INDEX 01 06:30:43
  TRACK 299 AUDIO
    TITLE "0:"
    INDEX 01 06:31:41
  TRACK 300 AUDIO
    TITLE "29:cjc023_5409"
    INDEX 01 06:32:11
  TRACK 301 AUDIO
    TITLE "0:"
    INDEX 01 06:34:74
  TRACK 302 AUDIO
    TITLE "30:cjc023_5410"
    INDEX 01 06:35:21
  TRACK 303 AUDIO
    TITLE "0:"
    INDEX 01 06:38:21
  TRACK 304 AUDIO
    TITLE "31:cjc023_5411"
    INDEX 01 06:38:53
  TRACK 305 AUDIO
    TITLE "0:"
    INDEX 01 06:41:51
  TRACK 306 AUDIO
    TITLE "28:cjc023_5412"
    INDEX 01 06:42:60
  TRACK 307 AUDIO
    TITLE "0:"
    INDEX 01 06:44:00
  TRACK 308 AUDIO
    TITLE "29:cjc023_5413"
    INDEX 01 06:44:45
  TRACK 309 AUDIO
    TITLE "0:"
    INDEX 01 06:46:42
  TRACK 310 AUDIO
    TITLE "30:cjc023_5414"
    INDEX 01 06:46:68
  TRACK 311 AUDIO
    TITLE "0:"
    INDEX 01 06:48:57
  TRACK 312 AUDIO
    TITLE "31:cjc023_5415"
    INDEX 01 06:49:03
  TRACK 313 AUDIO
    TITLE "0:"
    INDEX 01 06:50:67
  TRACK 314 AUDIO
    TITLE "28:cjc023_5416"
    INDEX 01 06:51:63
  TRACK 315 AUDIO
    TITLE "0:"
    INDEX 01 06:53:03
  TRACK 316 AUDIO
    TITLE "29:cjc023_5417"
    INDEX 01 06:53:50
  TRACK 317 AUDIO
    TITLE "0:"
    INDEX 01 06:55:31
  TRACK 318 AUDIO
    TITLE "30:cjc023_5418"
    INDEX 01 06:55:51
  TRACK 319 AUDIO
    TITLE "0:"
    INDEX 01 06:57:24
  TRACK 320 AUDIO
    TITLE "31:cjc023_5419"
    INDEX 01 06:57:48
  TRACK 321 AUDIO
    TITLE "0:"
    INDEX 01 06:59:23
  TRACK 322 AUDIO
    TITLE "28:cjc023_5420"
    INDEX 01 07:00:21
  TRACK 323 AUDIO
    TITLE "0:"
    INDEX 01 07:01:57
  TRACK 324 AUDIO
    TITLE "29:cjc023_5421"
    INDEX 01 07:02:33
  TRACK 325 AUDIO
    TITLE "0:"
    INDEX 01 07:05:06
  TRACK 326 AUDIO
    TITLE "30:cjc023_5422"
    INDEX 01 07:05:28
  TRACK 327 AUDIO
    TITLE "0:"
    INDEX 01 07:08:05
  TRACK 328 AUDIO
    TITLE "31:cjc023_5423"
    INDEX 01 07:08:30
  TRACK 329 AUDIO
    TITLE "0:"
    INDEX 01 07:11:09
  TRACK 330 AUDIO
    TITLE "28:cjc023_5424"
    INDEX 01 07:12:08
  TRACK 331 AUDIO
    TITLE "0:"
    INDEX 01 07:13:29
  TRACK 332 AUDIO
    TITLE "29:cjc023_5425"
    INDEX 01 07:14:03
  TRACK 333 AUDIO
    TITLE "0:"
    INDEX 01 07:15:54
  TRACK 334 AUDIO
    TITLE "30:cjc023_5426"
    INDEX 01 07:15:73
  TRACK 335 AUDIO
    TITLE "0:"
    INDEX 01 07:17:64
  TRACK 336 AUDIO
    TITLE "31:cjc023_5427"
    INDEX 01 07:18:11
  TRACK 337 AUDIO
    TITLE "0:"
    INDEX 01 07:20:00
  TRACK 338 AUDIO
    TITLE "28:cjc023_5428"
    INDEX 01 07:20:74
  TRACK 339 AUDIO
    TITLE "0:"
    INDEX 01 07:22:20
  TRACK 340 AUDIO
    TITLE "29:cjc023_5429"
    INDEX 01 07:22:67
  TRACK 341 AUDIO
    TITLE "0:"
    INDEX 01 07:26:36
  TRACK 342 AUDIO
    TITLE "30:cjc023_5430"
    INDEX 01 07:26:55
  TRACK 343 AUDIO
    TITLE "0:"
    INDEX 01 07:29:38
  TRACK 344 AUDIO
    TITLE "31:cjc023_5431"
    INDEX 01 07:29:66
  TRACK 345 AUDIO
    TITLE "0:"
    INDEX 01 07:32:50
  TRACK 346 AUDIO
    TITLE "28:cjc023_5432"
    INDEX 01 07:33:50
  TRACK 347 AUDIO
    TITLE "0:"
    INDEX 01 07:35:05
  TRACK 348 AUDIO
    TITLE "29:cjc023_5433"
    INDEX 01 07:35:52
  TRACK 349 AUDIO
    TITLE "0:"
    INDEX 01 07:38:39
  TRACK 350 AUDIO
    TITLE "30:cjc023_5434"
    INDEX 01 07:38:66
  TRACK 351 AUDIO
    TITLE "0:"
    INDEX 01 07:41:65
  TRACK 352 AUDIO
    TITLE "31:cjc023_5435"
    INDEX 01 07:42:19
  TRACK 353 AUDIO
    TITLE "0:"
    INDEX 01 07:45:20
  TRACK 354 AUDIO
    TITLE "28:cjc023_5436"
    INDEX 01 07:46:15
  TRACK 355 AUDIO
    TITLE "0:"
    INDEX 01 07:47:26
  TRACK 356 AUDIO
    TITLE "29:cjc023_5437"
    INDEX 01 07:48:02
  TRACK 357 AUDIO
    TITLE "0:"
    INDEX 01 07:50:25
  TRACK 358 AUDIO
    TITLE "30:cjc023_5438"
    INDEX 01 07:50:46
  TRACK 359 AUDIO
    TITLE "0:"
    INDEX 01 07:53:03
  TRACK 360 AUDIO
    TITLE "31:cjc023_5439"
    INDEX 01 07:53:25
  TRACK 361 AUDIO
    TITLE "0:"
    INDEX 01 07:55:57
  TRACK 362 AUDIO
    TITLE "28:cjc023_5440"
    INDEX 01 07:56:55
  TRACK 363 AUDIO
    TITLE "0:"
    INDEX 01 07:58:01
  TRACK 364 AUDIO
    TITLE "29:cjc023_5441"
    INDEX 01 07:58:50
  TRACK 365 AUDIO
    TITLE "0:"
    INDEX 01 08:00:27
  TRACK 366 AUDIO
    TITLE "30:cjc023_5442"
    INDEX 01 08:00:48
  TRACK 367 AUDIO
    TITLE "0:"
    INDEX 01 08:02:36
  TRACK 368 AUDIO
    TITLE "31:cjc023_5443"
    INDEX 01 08:02:57
  TRACK 369 AUDIO
    TITLE "0:"
    INDEX 01 08:04:44
  TRACK 370 AUDIO
    TITLE "28:cjc023_5444"
    INDEX 01 08:05:46
  TRACK 371 AUDIO
    TITLE "0:"
    INDEX 01 08:06:63
  TRACK 372 AUDIO
    TITLE "29:cjc023_5445"
    INDEX 01 08:07:35
  TRACK 373 AUDIO
    TITLE "0:"
    INDEX 01 08:09:14
  TRACK 374 AUDIO
    TITLE "30:cjc023_5446"
    INDEX 01 08:09:38
  TRACK 375 AUDIO
    TITLE "0:"
    INDEX 01 08:11:15
  TRACK 376 AUDIO
    TITLE "31:cjc023_5447"
    INDEX 01 08:11:39
  TRACK 377 AUDIO
    TITLE "0:"
    INDEX 01 08:13:14
  TRACK 378 AUDIO
    TITLE "28:cjc023_5448"
    INDEX 01 08:14:21
  TRACK 379 AUDIO
    TITLE "0:"
    INDEX 01 08:15:27
  TRACK 380 AUDIO
    TITLE "29:cjc023_5449"
    INDEX 01 08:15:74
  TRACK 381 AUDIO
    TITLE "0:"
    INDEX 01 08:19:24
  TRACK 382 AUDIO
    TITLE "30:cjc023_5450"
    INDEX 01 08:19:48
  TRACK 383 AUDIO
    TITLE "0:"
    INDEX 01 08:22:48
  TRACK 384 AUDIO
    TITLE "31:cjc023_5451"
    INDEX 01 08:22:68
  TRACK 385 AUDIO
    TITLE "0:"
    INDEX 01 08:25:66
  TRACK 386 AUDIO
    TITLE "28:cjc023_5452"
    INDEX 01 08:26:64
  TRACK 387 AUDIO
    TITLE "0:"
    INDEX 01 08:27:71
  TRACK 388 AUDIO
    TITLE "29:cjc023_5453"
    INDEX 01 08:28:45
  TRACK 389 AUDIO
    TITLE "0:"
    INDEX 01 08:30:12
  TRACK 390 AUDIO
    TITLE "30:cjc023_5454"
    INDEX 01 08:30:36
  TRACK 391 AUDIO
    TITLE "0:"
    INDEX 01 08:32:29
  TRACK 392 AUDIO
    TITLE "31:cjc023_5455"
    INDEX 01 08:32:52
  TRACK 393 AUDIO
    TITLE "0:"
    INDEX 01 08:34:47
  TRACK 394 AUDIO
    TITLE "28:cjc023_5456"
    INDEX 01 08:35:45
  TRACK 395 AUDIO
    TITLE "0:"
    INDEX 01 08:36:66
  TRACK 396 AUDIO
    TITLE "29:cjc023_5457"
    INDEX 01 08:37:38
  TRACK 397 AUDIO
    TITLE "0:"
    INDEX 01 08:39:47
  TRACK 398 AUDIO
    TITLE "30:cjc023_5458"
    INDEX 01 08:39:70
  TRACK 399 AUDIO
    TITLE "0:"
    INDEX 01 08:42:21
  TRACK 400 AUDIO
    TITLE "31:cjc023_5459"
    INDEX 01 08:42:45
  TRACK 401 AUDIO
    TITLE "0:"
    INDEX 01 08:44:69
  TRACK 402 AUDIO
    TITLE "28:cjc023_5460"
    INDEX 01 08:45:71
  TRACK 403 AUDIO
    TITLE "0:"
    INDEX 01 08:47:09
  TRACK 404 AUDIO
    TITLE "29:cjc023_5461"
    INDEX 01 08:47:56
  TRACK 405 AUDIO
    TITLE "0:"
    INDEX 01 08:50:05
  TRACK 406 AUDIO
    TITLE "30:cjc023_5462"
    INDEX 01 08:50:29
  TRACK 407 AUDIO
    TITLE "0:"
    INDEX 01 08:52:02
  TRACK 408 AUDIO
    TITLE "31:cjc023_5463"
    INDEX 01 08:52:24
  TRACK 409 AUDIO
    TITLE "0:"
    INDEX 01 08:53:72
  TRACK 410 AUDIO
    TITLE "28:cjc023_5464"
    INDEX 01 08:54:70
  TRACK 411 AUDIO
    TITLE "0:"
    INDEX 01 08:56:02
  TRACK 412 AUDIO
    TITLE "29:cjc023_5465"
    INDEX 01 08:56:49
  TRACK 413 AUDIO
    TITLE "0:"
    INDEX 01 08:59:06
  TRACK 414 AUDIO
    TITLE "30:cjc023_5466"
    INDEX 01 08:59:30
  TRACK 415 AUDIO
    TITLE "0:"
    INDEX 01 09:01:42
  TRACK 416 AUDIO
    TITLE "31:cjc023_5467"
    INDEX 01 09:01:66
  TRACK 417 AUDIO
    TITLE "0:"
    INDEX 01 09:04:05
  TRACK 418 AUDIO
    TITLE "28:cjc023_5468"
    INDEX 01 09:04:74
  TRACK 419 AUDIO
    TITLE "0:"
    INDEX 01 09:06:12
  TRACK 420 AUDIO
    TITLE "29:cjc023_5469"
    INDEX 01 09:06:57
  TRACK 421 AUDIO
    TITLE "0:"
    INDEX 01 09:09:20
  TRACK 422 AUDIO
    TITLE "30:cjc023_5470"
    INDEX 01 09:09:46
  TRACK 423 AUDIO
    TITLE "0:"
    INDEX 01 09:12:21
  TRACK 424 AUDIO
    TITLE "31:cjc023_5471"
    INDEX 01 09:12:42
  TRACK 425 AUDIO
    TITLE "0:"
    INDEX 01 09:15:17
  TRACK 426 AUDIO
    TITLE "28:cjc023_5472"
    INDEX 01 09:16:14
  TRACK 427 AUDIO
    TITLE "0:"
    INDEX 01 09:17:28
  TRACK 428 AUDIO
    TITLE "29:cjc023_5473"
    INDEX 01 09:17:73
  TRACK 429 AUDIO
    TITLE "0:"
    INDEX 01 09:19:54
  TRACK 430 AUDIO
    TITLE "30:cjc023_5474"
    INDEX 01 09:20:02
  TRACK 431 AUDIO
    TITLE "0:"
    INDEX 01 09:21:59
  TRACK 432 AUDIO
    TITLE "31:cjc023_5475"
    INDEX 01 09:22:05
  TRACK 433 AUDIO
    TITLE "0:"
    INDEX 01 09:23:62
  TRACK 434 AUDIO
    TITLE "28:cjc023_5476"
    INDEX 01 09:24:59
  TRACK 435 AUDIO
    TITLE "0:"
    INDEX 01 09:25:66
  TRACK 436 AUDIO
    TITLE "29:cjc023_5477"
    INDEX 01 09:26:38
  TRACK 437 AUDIO
    TITLE "0:"
    INDEX 01 09:29:21
  TRACK 438 AUDIO
    TITLE "30:cjc023_5478"
    INDEX 01 09:29:41
  TRACK 439 AUDIO
    TITLE "0:"
    INDEX 01 09:31:41
  TRACK 440 AUDIO
    TITLE "31:cjc023_5479"
    INDEX 01 09:31:63
  TRACK 441 AUDIO
    TITLE "0:"
    INDEX 01 09:33:62
  TRACK 442 AUDIO
    TITLE "28:cjc023_5480"
    INDEX 01 09:34:61
  TRACK 443 AUDIO
    TITLE "0:"
    INDEX 01 09:36:15
  TRACK 444 AUDIO
    TITLE "29:cjc023_5481"
    INDEX 01 09:36:68
  TRACK 445 AUDIO
    TITLE "0:"
    INDEX 01 09:40:29
  TRACK 446 AUDIO
    TITLE "30:cjc023_5482"
    INDEX 01 09:40:48
  TRACK 447 AUDIO
    TITLE "0:"
    INDEX 01 09:43:27
  TRACK 448 AUDIO
    TITLE "31:cjc023_5483"
    INDEX 01 09:43:49
  TRACK 449 AUDIO
    TITLE "0:"
    INDEX 01 09:46:27
  TRACK 450 AUDIO
    TITLE "28:cjc023_5484"
    INDEX 01 09:47:23
  TRACK 451 AUDIO
    TITLE "0:"
    INDEX 01 09:48:24
  TRACK 452 AUDIO
    TITLE "29:cjc023_5485"
    INDEX 01 09:48:73
  TRACK 453 AUDIO
    TITLE "0:"
    INDEX 01 09:53:08
  TRACK 454 AUDIO
    TITLE "30:cjc023_5486"
    INDEX 01 09:53:27
  TRACK 455 AUDIO
    TITLE "0:"
    INDEX 01 09:55:65
  TRACK 456 AUDIO
    TITLE "31:cjc023_5487"
    INDEX 01 09:56:12
  TRACK 457 AUDIO
    TITLE "0:"
    INDEX 01 09:58:48
  TRACK 458 AUDIO
    TITLE "28:cjc023_5488"
    INDEX 01 09:59:48
  TRACK 459 AUDIO
    TITLE "0:"
    INDEX 01 10:00:71
  TRACK 460 AUDIO
    TITLE "29:cjc023_5489"
    INDEX 01 10:01:41
  TRACK 461 AUDIO
    TITLE "0:"
    INDEX 01 10:03:38
  TRACK 462 AUDIO
    TITLE "30:cjc023_5490"
    INDEX 01 10:03:57
  TRACK 463 AUDIO
    TITLE "0:"
    INDEX 01 10:05:48
  TRACK 464 AUDIO
    TITLE "31:cjc023_5491"
    INDEX 01 10:05:70
  TRACK 465 AUDIO
    TITLE "0:"
    INDEX 01 10:07:61
  TRACK 466 AUDIO
    TITLE "28:cjc023_5492"
    INDEX 01 10:08:58
  TRACK 467 AUDIO
    TITLE "0:"
    INDEX 01 10:09:69
  TRACK 468 AUDIO
    TITLE "29:cjc023_5493"
    INDEX 01 10:10:47
  TRACK 469 AUDIO
    TITLE "0:"
    INDEX 01 10:13:46
  TRACK 470 AUDIO
    TITLE "30:cjc023_5494"
    INDEX 01 10:13:67
  TRACK 471 AUDIO
    TITLE "0:"
    INDEX 01 10:16:66
  TRACK 472 AUDIO
    TITLE "31:cjc023_5495"
    INDEX 01 10:17:10
  TRACK 473 AUDIO
    TITLE "0:"
    INDEX 01 10:20:09
  TRACK 474 AUDIO
    TITLE "28:cjc023_5496"
    INDEX 01 10:21:04
  TRACK 475 AUDIO
    TITLE "0:"
    INDEX 01 10:22:15
  TRACK 476 AUDIO
    TITLE "29:cjc023_5497"
    INDEX 01 10:22:62
  TRACK 477 AUDIO
    TITLE "0:"
    INDEX 01 10:25:14
  TRACK 478 AUDIO
    TITLE "30:cjc023_5498"
    INDEX 01 10:25:35
  TRACK 479 AUDIO
    TITLE "0:"
    INDEX 01 10:28:12
  TRACK 480 AUDIO
    TITLE "31:cjc023_5499"
    INDEX 01 10:28:36
  TRACK 481 AUDIO
    TITLE "0:"
    INDEX 01 10:31:12
  TRACK 482 AUDIO
    TITLE "28:cjc023_5500"
    INDEX 01 10:32:10
  TRACK 483 AUDIO
    TITLE "0:"
    INDEX 01 10:33:37
  TRACK 484 AUDIO
    TITLE "29:cjc023_5501"
    INDEX 01 10:34:13
  TRACK 485 AUDIO
    TITLE "0:"
    INDEX 01 10:36:53
  TRACK 486 AUDIO
    TITLE "30:cjc023_5502"
    INDEX 01 10:37:01
  TRACK 487 AUDIO
    TITLE "0:"
    INDEX 01 10:38:61
  TRACK 488 AUDIO
    TITLE "31:cjc023_5503"
    INDEX 01 10:39:10
  TRACK 489 AUDIO
    TITLE "0:"
    INDEX 01 10:40:72
  TRACK 490 AUDIO
    TITLE "28:cjc023_5504"
    INDEX 01 10:41:69
  TRACK 491 AUDIO
    TITLE "0:"
    INDEX 01 10:43:15
  TRACK 492 AUDIO
    TITLE "29:cjc023_5505"
    INDEX 01 10:43:61
  TRACK 493 AUDIO
    TITLE "0:"
    INDEX 01 10:47:09
  TRACK 494 AUDIO
    TITLE "30:cjc023_5506"
    INDEX 01 10:47:31
  TRACK 495 AUDIO
    TITLE "0:"
    INDEX 01 10:50:00
  TRACK 496 AUDIO
    TITLE "31:cjc023_5507"
    INDEX 01 10:50:23
  TRACK 497 AUDIO
    TITLE "0:"
    INDEX 01 10:52:65
  TRACK 498 AUDIO
    TITLE "28:cjc023_5508"
    INDEX 01 10:53:67
  TRACK 499 AUDIO
    TITLE "0:"
    INDEX 01 10:55:21
  TRACK 500 AUDIO
    TITLE "29:cjc023_5509"
    INDEX 01 10:55:66
  TRACK 501 AUDIO
    TITLE "0:"
    INDEX 01 10:59:03
  TRACK 502 AUDIO
    TITLE "30:cjc023_5510"
    INDEX 01 10:59:26
  TRACK 503 AUDIO
    TITLE "0:"
    INDEX 01 11:02:42
  TRACK 504 AUDIO
    TITLE "31:cjc023_5511"
    INDEX 01 11:02:64
  TRACK 505 AUDIO
    TITLE "0:"
    INDEX 01 11:06:07
  TRACK 506 AUDIO
    TITLE "28:cjc023_5512"
    INDEX 01 11:07:04
  TRACK 507 AUDIO
    TITLE "0:"
    INDEX 01 11:08:10
  TRACK 508 AUDIO
    TITLE "29:cjc023_5513"
    INDEX 01 11:08:57
  TRACK 509 AUDIO
    TITLE "0:"
    INDEX 01 11:11:65
  TRACK 510 AUDIO
    TITLE "30:cjc023_5514"
    INDEX 01 11:12:09
  TRACK 511 AUDIO
    TITLE "0:"
    INDEX 01 11:14:49
  TRACK 512 AUDIO
    TITLE "31:cjc023_5515"
    INDEX 01 11:14:71
  TRACK 513 AUDIO
    TITLE "0:"
    INDEX 01 11:17:32
  TRACK 514 AUDIO
    TITLE "28:cjc023_5516"
    INDEX 01 11:18:30
  TRACK 515 AUDIO
    TITLE "0:"
    INDEX 01 11:19:51
  TRACK 516 AUDIO
    TITLE "29:cjc023_5517"
    INDEX 01 11:20:24
  TRACK 517 AUDIO
    TITLE "0:"
    INDEX 01 11:23:29
  TRACK 518 AUDIO
    TITLE "30:cjc023_5518"
    INDEX 01 11:23:50
  TRACK 519 AUDIO
    TITLE "0:"
    INDEX 01 11:27:32
  TRACK 520 AUDIO
    TITLE "31:cjc023_5519"
    INDEX 01 11:27:56
  TRACK 521 AUDIO
    TITLE "0:"
    INDEX 01 11:31:36
  TRACK 522 AUDIO
    TITLE "28:cjc023_5520"
    INDEX 01 11:32:36
  TRACK 523 AUDIO
    TITLE "0:"
    INDEX 01 11:33:62
  TRACK 524 AUDIO
    TITLE "29:cjc023_5521"
    INDEX 01 11:34:36
  TRACK 525 AUDIO
    TITLE "0:"
    INDEX 01 11:36:55
  TRACK 526 AUDIO
    TITLE "30:cjc023_5522"
    INDEX 01 11:37:05
  TRACK 527 AUDIO
    TITLE "0:"
    INDEX 01 11:39:14
  TRACK 528 AUDIO
    TITLE "31:cjc023_5523"
    INDEX 01 11:39:38
  TRACK 529 AUDIO
    TITLE "0:"
    INDEX 01 11:41:48
  TRACK 530 AUDIO
    TITLE "28:cjc023_5524"
    INDEX 01 11:42:46
  TRACK 531 AUDIO
    TITLE "0:"
    INDEX 01 11:43:59
  TRACK 532 AUDIO
    TITLE "29:cjc023_5525"
    INDEX 01 11:44:27
  TRACK 533 AUDIO
    TITLE "0:"
    INDEX 01 11:46:04
  TRACK 534 AUDIO
    TITLE "30:cjc023_5526"
    INDEX 01 11:46:26
  TRACK 535 AUDIO
    TITLE "0:"
    INDEX 01 11:48:31
  TRACK 536 AUDIO
    TITLE "31:cjc023_5527"
    INDEX 01 11:48:52
  TRACK 537 AUDIO
    TITLE "0:"
    INDEX 01 11:50:59
  TRACK 538 AUDIO
    TITLE "28:cjc023_5528"
    INDEX 01 11:51:54
  TRACK 539 AUDIO
    TITLE "0:"
    INDEX 01 11:52:68
  TRACK 540 AUDIO
    TITLE "29:cjc023_5529"
    INDEX 01 11:53:40
  TRACK 541 AUDIO
    TITLE "0:"
    INDEX 01 11:56:46
  TRACK 542 AUDIO
    TITLE "30:cjc023_5530"
    INDEX 01 11:56:65
  TRACK 543 AUDIO
    TITLE "0:"
    INDEX 01 11:59:44
  TRACK 544 AUDIO
    TITLE "31:cjc023_5531"
    INDEX 01 11:59:68
  TRACK 545 AUDIO
    TITLE "0:"
    INDEX 01 12:02:48
  TRACK 546 AUDIO
    TITLE "28:cjc023_5532"
    INDEX 01 12:03:46
  TRACK 547 AUDIO
    TITLE "0:"
    INDEX 01 12:04:63
  TRACK 548 AUDIO
    TITLE "29:cjc023_5533"
    INDEX 01 12:05:35
  TRACK 549 AUDIO
    TITLE "0:"
    INDEX 01 12:07:24
  TRACK 550 AUDIO
    TITLE "30:cjc023_5534"
    INDEX 01 12:07:48
  TRACK 551 AUDIO
    TITLE "0:"
    INDEX 01 12:09:56
  TRACK 552 AUDIO
    TITLE "31:cjc023_5535"
    INDEX 01 12:10:05
  TRACK 553 AUDIO
    TITLE "0:"
    INDEX 01 12:12:15
  TRACK 554 AUDIO
    TITLE "28:cjc023_5536"
    INDEX 01 12:13:13
  TRACK 555 AUDIO
    TITLE "0:"
    INDEX 01 12:14:30
  TRACK 556 AUDIO
    TITLE "29:cjc023_5537"
    INDEX 01 12:15:06
  TRACK 557 AUDIO
    TITLE "0:"
    INDEX 01 12:16:62
  TRACK 558 AUDIO
    TITLE "30:cjc023_5538"
    INDEX 01 12:17:11
  TRACK 559 AUDIO
    TITLE "0:"
    INDEX 01 12:18:63
  TRACK 560 AUDIO
    TITLE "31:cjc023_5539"
    INDEX 01 12:19:12
  TRACK 561 AUDIO
    TITLE "0:"
    INDEX 01 12:20:64
  TRACK 562 AUDIO
    TITLE "28:cjc023_5540"
    INDEX 01 12:21:59
  TRACK 563 AUDIO
    TITLE "0:"
    INDEX 01 12:22:69
  TRACK 564 AUDIO
    TITLE "29:cjc023_5541"
    INDEX 01 12:23:43
  TRACK 565 AUDIO
    TITLE "0:"
    INDEX 01 12:24:73
  TRACK 566 AUDIO
    TITLE "30:cjc023_5542"
    INDEX 01 12:25:20
  TRACK 567 AUDIO
    TITLE "0:"
    INDEX 01 12:26:70
  TRACK 568 AUDIO
    TITLE "31:cjc023_5543"
    INDEX 01 12:27:19
  TRACK 569 AUDIO
    TITLE "0:"
    INDEX 01 12:28:67
  TRACK 570 AUDIO
    TITLE "28:cjc023_5544"
    INDEX 01 12:29:63
  TRACK 571 AUDIO
    TITLE "0:"
    INDEX 01 12:30:72
  TRACK 572 AUDIO
    TITLE "29:cjc023_5545"
    INDEX 01 12:31:48
  TRACK 573 AUDIO
    TITLE "0:"
    INDEX 01 12:34:09
  TRACK 574 AUDIO
    TITLE "30:cjc023_5546"
    INDEX 01 12:34:33
  TRACK 575 AUDIO
    TITLE "0:"
    INDEX 01 12:36:51
  TRACK 576 AUDIO
    TITLE "31:cjc023_5547"
    INDEX 01 12:37:00
  TRACK 577 AUDIO
    TITLE "0:"
    INDEX 01 12:39:18
  TRACK 578 AUDIO
    TITLE "28:cjc023_5548"
    INDEX 01 12:40:18
  TRACK 579 AUDIO
    TITLE "0:"
    INDEX 01 12:41:25
  TRACK 580 AUDIO
    TITLE "29:cjc023_5549"
    INDEX 01 12:41:70
  TRACK 581 AUDIO
    TITLE "0:"
    INDEX 01 12:44:53
  TRACK 582 AUDIO
    TITLE "30:cjc023_5550"
    INDEX 01 12:44:72
  TRACK 583 AUDIO
    TITLE "0:"
    INDEX 01 12:47:12
  TRACK 584 AUDIO
    TITLE "31:cjc023_5551"
    INDEX 01 12:47:33
  TRACK 585 AUDIO
    TITLE "0:"
    INDEX 01 12:49:44
  TRACK 586 AUDIO
    TITLE "28:cjc023_5552"
    INDEX 01 12:50:43
  TRACK 587 AUDIO
    TITLE "0:"
    INDEX 01 12:51:53
  TRACK 588 AUDIO
    TITLE "29:cjc023_5553"
    INDEX 01 12:52:27
  TRACK 589 AUDIO
    TITLE "0:"
    INDEX 01 12:55:09
  TRACK 590 AUDIO
    TITLE "30:cjc023_5554"
    INDEX 01 12:55:31
  TRACK 591 AUDIO
    TITLE "0:"
    INDEX 01 12:57:69
  TRACK 592 AUDIO
    TITLE "31:cjc023_5555"
    INDEX 01 12:58:16
  TRACK 593 AUDIO
    TITLE "0:"
    INDEX 01 13:00:56
  TRACK 594 AUDIO
    TITLE "28:cjc023_5556"
    INDEX 01 13:01:49
  TRACK 595 AUDIO
    TITLE "0:"
    INDEX 01 13:02:66
  TRACK 596 AUDIO
    TITLE "29:cjc023_5557"
    INDEX 01 13:03:44
  TRACK 597 AUDIO
    TITLE "0:"
    INDEX 01 13:06:25
  TRACK 598 AUDIO
    TITLE "30:cjc023_5558"
    INDEX 01 13:06:48
  TRACK 599 AUDIO
    TITLE "0:"
    INDEX 01 13:09:33
  TRACK 600 AUDIO
    TITLE "31:cjc023_5559"
    INDEX 01 13:09:55
  TRACK 601 AUDIO
    TITLE "0:"
    INDEX 01 13:12:41
  TRACK 602 AUDIO
    TITLE "28:cjc023_5560"
    INDEX 01 13:13:39
  TRACK 603 AUDIO
    TITLE "0:"
    INDEX 01 13:14:62
  TRACK 604 AUDIO
    TITLE "29:cjc023_5561"
    INDEX 01 13:15:30
  TRACK 605 AUDIO
    TITLE "0:"
    INDEX 01 13:17:72
  TRACK 606 AUDIO
    TITLE "30:cjc023_5562"
    INDEX 01 13:18:22
  TRACK 607 AUDIO
    TITLE "0:"
    INDEX 01 13:21:17
  TRACK 608 AUDIO
    TITLE "31:cjc023_5563"
    INDEX 01 13:21:38
  TRACK 609 AUDIO
    TITLE "0:"
    INDEX 01 13:24:33
  TRACK 610 AUDIO
    TITLE "28:cjc023_5564"
    INDEX 01 13:25:28
  TRACK 611 AUDIO
    TITLE "0:"
    INDEX 01 13:26:67
  TRACK 612 AUDIO
    TITLE "29:cjc023_5565"
    INDEX 01 13:27:35
  TRACK 613 AUDIO
    TITLE "0:"
    INDEX 01 13:29:42
  TRACK 614 AUDIO
    TITLE "30:cjc023_5566"
    INDEX 01 13:29:69
  TRACK 615 AUDIO
    TITLE "0:"
    INDEX 01 13:32:24
  TRACK 616 AUDIO
    TITLE "31:cjc023_5567"
    INDEX 01 13:32:48
  TRACK 617 AUDIO
    TITLE "0:"
    INDEX 01 13:35:03
  TRACK 618 AUDIO
    TITLE "28:cjc023_5568"
    INDEX 01 13:36:00
  TRACK 619 AUDIO
    TITLE "0:"
    INDEX 01 13:37:06
  TRACK 620 AUDIO
    TITLE "29:cjc023_5569"
    INDEX 01 13:37:53
  TRACK 621 AUDIO
    TITLE "0:"
    INDEX 01 13:39:30
  TRACK 622 AUDIO
    TITLE "30:cjc023_5570"
    INDEX 01 13:39:58
  TRACK 623 AUDIO
    TITLE "0:"
    INDEX 01 13:42:17
  TRACK 624 AUDIO
    TITLE "31:cjc023_5571"
    INDEX 01 13:42:38
  TRACK 625 AUDIO
    TITLE "0:"
    INDEX 01 13:44:72
  TRACK 626 AUDIO
    TITLE "28:cjc023_5572"
    INDEX 01 13:45:68
  TRACK 627 AUDIO
    TITLE "0:"
    INDEX 01 13:47:06
  TRACK 628 AUDIO
    TITLE "29:cjc023_5573"
    INDEX 01 13:47:55
  TRACK 629 AUDIO
    TITLE "0:"
    INDEX 01 13:52:05
  TRACK 630 AUDIO
    TITLE "30:cjc023_5574"
    INDEX 01 13:52:25
  TRACK 631 AUDIO
    TITLE "0:"
    INDEX 01 13:56:15
  TRACK 632 AUDIO
    TITLE "31:cjc023_5575"
    INDEX 01 13:56:35
  TRACK 633 AUDIO
    TITLE "0:"
    INDEX 01 14:00:26
  TRACK 634 AUDIO
    TITLE "28:cjc023_5576"
    INDEX 01 14:01:20
  TRACK 635 AUDIO
    TITLE "0:"
    INDEX 01 14:02:47
  TRACK 636 AUDIO
    TITLE "29:cjc023_5577"
    INDEX 01 14:03:17
  TRACK 637 AUDIO
    TITLE "0:"
    INDEX 01 14:05:51
  TRACK 638 AUDIO
    TITLE "30:cjc023_5578"
    INDEX 01 14:06:06
  TRACK 639 AUDIO
    TITLE "0:"
    INDEX 01 14:08:59
  TRACK 640 AUDIO
    TITLE "31:cjc023_5579"
    INDEX 01 14:09:06
  TRACK 641 AUDIO
    TITLE "0:"
    INDEX 01 14:11:60
  TRACK 642 AUDIO
    TITLE "28:cjc023_5580"
    INDEX 01 14:12:57
  TRACK 643 AUDIO
    TITLE "0:"
    INDEX 01 14:13:58
  TRACK 644 AUDIO
    TITLE "29:cjc023_5581"
    INDEX 01 14:14:32
  TRACK 645 AUDIO
    TITLE "0:"
    INDEX 01 14:16:18
  TRACK 646 AUDIO
    TITLE "30:cjc023_5582"
    INDEX 01 14:16:45
  TRACK 647 AUDIO
    TITLE "0:"
    INDEX 01 14:18:44
  TRACK 648 AUDIO
    TITLE "31:cjc023_5583"
    INDEX 01 14:18:66
  TRACK 649 AUDIO
    TITLE "0:"
    INDEX 01 14:20:64
  TRACK 650 AUDIO
    TITLE "28:cjc023_5584"
    INDEX 01 14:21:60
  TRACK 651 AUDIO
    TITLE "0:"
    INDEX 01 14:23:00
  TRACK 652 AUDIO
    TITLE "29:cjc023_5585"
    INDEX 01 14:23:47
  TRACK 653 AUDIO
    TITLE "0:"
    INDEX 01 14:25:50
  TRACK 654 AUDIO
    TITLE "30:cjc023_5586"
    INDEX 01 14:25:73
  TRACK 655 AUDIO
    TITLE "0:"
    INDEX 01 14:28:25
  TRACK 656 AUDIO
    TITLE "31:cjc023_5587"
    INDEX 01 14:28:48
  TRACK 657 AUDIO
    TITLE "0:"
    INDEX 01 14:31:00
  TRACK 658 AUDIO
    TITLE "28:cjc023_5588"
    INDEX 01 14:31:72
  TRACK 659 AUDIO
    TITLE "0:"
    INDEX 01 14:33:14
  TRACK 660 AUDIO
    TITLE "29:cjc023_5589"
    INDEX 01 14:33:63
  TRACK 661 AUDIO
    TITLE "0:"
    INDEX 01 14:35:23
  TRACK 662 AUDIO
    TITLE "30:cjc023_5590"
    INDEX 01 14:35:46
  TRACK 663 AUDIO
    TITLE "0:"
    INDEX 01 14:37:30
  TRACK 664 AUDIO
    TITLE "31:cjc023_5591"
    INDEX 01 14:37:51
  TRACK 665 AUDIO
    TITLE "0:"
    INDEX 01 14:39:34
  TRACK 666 AUDIO
    TITLE "28:cjc023_5592"
    INDEX 01 14:40:30
  TRACK 667 AUDIO
    TITLE "0:"
    INDEX 01 14:41:41
  TRACK 668 AUDIO
    TITLE "29:cjc023_5593"
    INDEX 01 14:42:17
  TRACK 669 AUDIO
    TITLE "0:"
    INDEX 01 14:43:67
  TRACK 670 AUDIO
    TITLE "30:cjc023_5594"
    INDEX 01 14:44:18
  TRACK 671 AUDIO
    TITLE "0:"
    INDEX 01 14:46:03
  TRACK 672 AUDIO
    TITLE "31:cjc023_5595"
    INDEX 01 14:46:29
  TRACK 673 AUDIO
    TITLE "0:"
    INDEX 01 14:48:18
  TRACK 674 AUDIO
    TITLE "28:cjc023_5596"
    INDEX 01 14:49:15
  TRACK 675 AUDIO
    TITLE "0:"
    INDEX 01 14:50:26
  TRACK 676 AUDIO
    TITLE "29:cjc023_5597"
    INDEX 01 14:50:73
  TRACK 677 AUDIO
    TITLE "0:"
    INDEX 01 14:53:21
  TRACK 678 AUDIO
    TITLE "30:cjc023_5598"
    INDEX 01 14:53:44
  TRACK 679 AUDIO
    TITLE "0:"
    INDEX 01 14:55:26
  TRACK 680 AUDIO
    TITLE "31:cjc023_5599"
    INDEX 01 14:55:47
  TRACK 681 AUDIO
    TITLE "0:"
    INDEX 01 14:57:30
  TRACK 682 AUDIO
    TITLE "28:cjc023_5600"
    INDEX 01 14:58:28
  TRACK 683 AUDIO
    TITLE "0:"
    INDEX 01 14:59:41
  TRACK 684 AUDIO
    TITLE "29:cjc023_5601"
    INDEX 01 15:00:11
  TRACK 685 AUDIO
    TITLE "0:"
    INDEX 01 15:03:37
  TRACK 686 AUDIO
    TITLE "30:cjc023_5602"
    INDEX 01 15:03:60
  TRACK 687 AUDIO
    TITLE "0:"
    INDEX 01 15:06:47
  TRACK 688 AUDIO
    TITLE "31:cjc023_5603"
    INDEX 01 15:06:70
  TRACK 689 AUDIO
    TITLE "0:"
    INDEX 01 15:09:57
  TRACK 690 AUDIO
    TITLE "28:cjc023_5604"
    INDEX 01 15:10:54
  TRACK 691 AUDIO
    TITLE "0:"
    INDEX 01 15:11:72
  TRACK 692 AUDIO
    TITLE "29:cjc023_5605"
    INDEX 01 15:12:46
  TRACK 693 AUDIO
    TITLE "0:"
    INDEX 01 15:14:35
  TRACK 694 AUDIO
    TITLE "30:cjc023_5606"
    INDEX 01 15:14:60
  TRACK 695 AUDIO
    TITLE "0:"
    INDEX 01 15:16:47
  TRACK 696 AUDIO
    TITLE "31:cjc023_5607"
    INDEX 01 15:16:71
  TRACK 697 AUDIO
    TITLE "0:"
    INDEX 01 15:18:58
  TRACK 698 AUDIO
    TITLE "28:cjc023_5608"
    INDEX 01 15:19:55
  TRACK 699 AUDIO
    TITLE "0:"
    INDEX 01 15:20:69
  TRACK 700 AUDIO
    TITLE "29:cjc023_5609"
    INDEX 01 15:21:43
  TRACK 701 AUDIO
    TITLE "0:"
    INDEX 01 15:24:10
  TRACK 702 AUDIO
    TITLE "30:cjc023_5610"
    INDEX 01 15:24:37
  TRACK 703 AUDIO
    TITLE "0:"
    INDEX 01 15:27:39
  TRACK 704 AUDIO
    TITLE "31:cjc023_5611"
    INDEX 01 15:27:61
  TRACK 705 AUDIO
    TITLE "0:"
    INDEX 01 15:30:59
  TRACK 706 AUDIO
    TITLE "28:cjc023_5612"
    INDEX 01 15:31:59
  TRACK 707 AUDIO
    TITLE "0:"
    INDEX 01 15:33:18
  TRACK 708 AUDIO
    TITLE "29:cjc023_5613"
    INDEX 01 15:33:69
  TRACK 709 AUDIO
    TITLE "0:"
    INDEX 01 15:36:26
  TRACK 710 AUDIO
    TITLE "30:cjc023_5614"
    INDEX 01 15:36:50
  TRACK 711 AUDIO
    TITLE "0:"
    INDEX 01 15:39:48
  TRACK 712 AUDIO
    TITLE "31:cjc023_5615"
    INDEX 01 15:39:70
  TRACK 713 AUDIO
    TITLE "0:"
    INDEX 01 15:42:66
  TRACK 714 AUDIO
    TITLE "28:cjc023_5616"
    INDEX 01 15:43:66
  TRACK 715 AUDIO
    TITLE "0:"
    INDEX 01 15:45:14
  TRACK 716 AUDIO
    TITLE "29:cjc023_5617"
    INDEX 01 15:45:61
  TRACK 717 AUDIO
    TITLE "0:"
    INDEX 01 15:48:08
  TRACK 718 AUDIO
    TITLE "30:cjc023_5618"
    INDEX 01 15:48:32
  TRACK 719 AUDIO
    TITLE "0:"
    INDEX 01 15:50:54
  TRACK 720 AUDIO
    TITLE "31:cjc023_5619"
    INDEX 01 15:51:03
  TRACK 721 AUDIO
    TITLE "0:"
    INDEX 01 15:53:23
  TRACK 722 AUDIO
    TITLE "28:cjc023_5620"
    INDEX 01 15:54:18
  TRACK 723 AUDIO
    TITLE "0:"
    INDEX 01 15:55:43
  TRACK 724 AUDIO
    TITLE "29:cjc023_5621"
    INDEX 01 15:56:17
  TRACK 725 AUDIO
    TITLE "0:"
    INDEX 01 15:59:20
  TRACK 726 AUDIO
    TITLE "30:cjc023_5622"
    INDEX 01 15:59:39
  TRACK 727 AUDIO
    TITLE "0:"
    INDEX 01 16:01:62
  TRACK 728 AUDIO
    TITLE "31:cjc023_5623"
    INDEX 01 16:02:04
  TRACK 729 AUDIO
    TITLE "0:"
    INDEX 01 16:04:27
  TRACK 730 AUDIO
    TITLE "28:cjc023_5624"
    INDEX 01 16:05:20
  TRACK 731 AUDIO
    TITLE "0:"
    INDEX 01 16:06:35
  TRACK 732 AUDIO
    TITLE "29:cjc023_5625"
    INDEX 01 16:07:15
  TRACK 733 AUDIO
    TITLE "0:"
    INDEX 01 16:10:43
  TRACK 734 AUDIO
    TITLE "30:cjc023_5626"
    INDEX 01 16:10:63
  TRACK 735 AUDIO
    TITLE "0:"
    INDEX 01 16:13:16
  TRACK 736 AUDIO
    TITLE "31:cjc023_5627"
    INDEX 01 16:13:37
  TRACK 737 AUDIO
    TITLE "0:"
    INDEX 01 16:15:66
  TRACK 738 AUDIO
    TITLE "28:cjc023_5628"
    INDEX 01 16:16:63
  TRACK 739 AUDIO
    TITLE "0:"
    INDEX 01 16:18:07
  TRACK 740 AUDIO
    TITLE "29:cjc023_5629"
    INDEX 01 16:18:52
  TRACK 741 AUDIO
    TITLE "0:"
    INDEX 01 16:20:47
  TRACK 742 AUDIO
    TITLE "30:cjc023_5630"
    INDEX 01 16:20:73
  TRACK 743 AUDIO
    TITLE "0:"
    INDEX 01 16:23:01
  TRACK 744 AUDIO
    TITLE "31:cjc023_5631"
    INDEX 01 16:23:24
  TRACK 745 AUDIO
    TITLE "0:"
    INDEX 01 16:25:27
  TRACK 746 AUDIO
    TITLE "28:cjc023_5632"
    INDEX 01 16:26:22
  TRACK 747 AUDIO
    TITLE "0:"
    INDEX 01 16:27:32
  TRACK 748 AUDIO
    TITLE "29:cjc023_5633"
    INDEX 01 16:28:04
  TRACK 749 AUDIO
    TITLE "0:"
    INDEX 01 16:31:51
  TRACK 750 AUDIO
    TITLE "30:cjc023_5634"
    INDEX 01 16:32:00
  TRACK 751 AUDIO
    TITLE "0:"
    INDEX 01 16:34:57
  TRACK 752 AUDIO
    TITLE "31:cjc023_5635"
    INDEX 01 16:35:06
  TRACK 753 AUDIO
    TITLE "0:"
    INDEX 01 16:37:63
  TRACK 754 AUDIO
    TITLE "28:cjc023_5636"
    INDEX 01 16:38:61
  TRACK 755 AUDIO
    TITLE "0:"
    INDEX 01 16:40:05
  TRACK 756 AUDIO
    TITLE "29:cjc023_5637"
    INDEX 01 16:40:52
  TRACK 757 AUDIO
    TITLE "0:"
    INDEX 01 16:43:48
  TRACK 758 AUDIO
    TITLE "30:cjc023_5638"
    INDEX 01 16:43:72
  TRACK 759 AUDIO
    TITLE "0:"
    INDEX 01 16:46:17
  TRACK 760 AUDIO
    TITLE "31:cjc023_5639"
    INDEX 01 16:46:47
  TRACK 761 AUDIO
    TITLE "0:"
    INDEX 01 16:48:65
  TRACK 762 AUDIO
    TITLE "28:cjc023_5640"
    INDEX 01 16:49:69
  TRACK 763 AUDIO
    TITLE "0:"
    INDEX 01 16:51:11
  TRACK 764 AUDIO
    TITLE "29:cjc023_5641"
    INDEX 01 16:51:56
  TRACK 765 AUDIO
    TITLE "0:"
    INDEX 01 16:54:40
  TRACK 766 AUDIO
    TITLE "30:cjc023_5642"
    INDEX 01 16:54:62
  TRACK 767 AUDIO
    TITLE "0:"
    INDEX 01 16:57:25
  TRACK 768 AUDIO
    TITLE "31:cjc023_5643"
    INDEX 01 16:57:45
  TRACK 769 AUDIO
    TITLE "0:"
    INDEX 01 17:00:08
  TRACK 770 AUDIO
    TITLE "28:cjc023_5644"
    INDEX 01 17:01:03
  TRACK 771 AUDIO
    TITLE "0:"
    INDEX 01 17:02:30
  TRACK 772 AUDIO
    TITLE "29:cjc023_5645"
    INDEX 01 17:03:00
  TRACK 773 AUDIO
    TITLE "0:"
    INDEX 01 17:04:54
  TRACK 774 AUDIO
    TITLE "30:cjc023_5646"
    INDEX 01 17:05:11
  TRACK 775 AUDIO
    TITLE "0:"
    INDEX 01 17:07:02
  TRACK 776 AUDIO
    TITLE "31:cjc023_5647"
    INDEX 01 17:07:23
  TRACK 777 AUDIO
    TITLE "0:"
    INDEX 01 17:09:14
  TRACK 778 AUDIO
    TITLE "28:cjc023_5648"
    INDEX 01 17:10:10
  TRACK 779 AUDIO
    TITLE "0:"
    INDEX 01 17:11:13
  TRACK 780 AUDIO
    TITLE "29:cjc023_5649"
    INDEX 01 17:11:60
  TRACK 781 AUDIO
    TITLE "0:"
    INDEX 01 17:13:36
  TRACK 782 AUDIO
    TITLE "30:cjc023_5650"
    INDEX 01 17:13:63
  TRACK 783 AUDIO
    TITLE "0:"
    INDEX 01 17:15:64
  TRACK 784 AUDIO
    TITLE "31:cjc023_5651"
    INDEX 01 17:16:11
  TRACK 785 AUDIO
    TITLE "0:"
    INDEX 01 17:18:11
  TRACK 786 AUDIO
    TITLE "28:cjc023_5652"
    INDEX 01 17:19:07
  TRACK 787 AUDIO
    TITLE "0:"
    INDEX 01 17:20:26
  TRACK 788 AUDIO
    TITLE "29:cjc023_5653"
    INDEX 01 17:21:04
  TRACK 789 AUDIO
    TITLE "0:"
    INDEX 01 17:24:73
  TRACK 790 AUDIO
    TITLE "30:cjc023_5654"
    INDEX 01 17:25:17
  TRACK 791 AUDIO
    TITLE "0:"
    INDEX 01 17:28:59
  TRACK 792 AUDIO
    TITLE "31:cjc023_5655"
    INDEX 01 17:29:03
  TRACK 793 AUDIO
    TITLE "0:"
    INDEX 01 17:32:43
  TRACK 794 AUDIO
    TITLE "28:cjc023_5656"
    INDEX 01 17:33:38
  TRACK 795 AUDIO
    TITLE "0:"
    INDEX 01 17:34:52
  TRACK 796 AUDIO
    TITLE "29:cjc023_5657"
    INDEX 01 17:35:24
  TRACK 797 AUDIO
    TITLE "0:"
    INDEX 01 17:37:30
  TRACK 798 AUDIO
    TITLE "30:cjc023_5658"
    INDEX 01 17:37:52
  TRACK 799 AUDIO
    TITLE "0:"
    INDEX 01 17:39:66
  TRACK 800 AUDIO
    TITLE "31:cjc023_5659"
    INDEX 01 17:40:13
  TRACK 801 AUDIO
    TITLE "0:"
    INDEX 01 17:42:28
